<?xml version="1.0" standalone="no"?><!DOCTYPE svg PUBLIC "-//W3C//DTD SVG 1.1//EN" "http://www.w3.org/Graphics/SVG/1.1/DTD/svg11.dtd"><svg class="icon" height="512" viewBox="0 0 1024 1024" version="1.1" xmlns="http://www.w3.org/2000/svg"><path d="M720 437.3c-136.3 80.7-216.9 172.9-261.3 224l-112-74.7-37.4 39.4L496 810.7c32.4-80.1 136.2-262.2 261.3-373.3H720zM762.9 176H496v37.3h298.7v709.3h-560V437.3h-37.3v438c0 45.6 39.9 84.7 85.5 84.7h480c45.6 0 69.1-39.1 69.1-84.7V261.5c0-45.6-23.5-85.5-69.1-85.5zM458.2 238.4c-0.5-5.2-5-10.5-10.1-11.7l-38.9-9.4c-5.1-1.2-10.7-6.3-12.4-11.2l-5-12.2c-2.3-4.7-2-12.2 0.8-16.7l20.9-34.1c2.7-4.5 2.1-11.3-1.4-15.2l-17.3-17.4c-3.9-3.5-10.8-4.1-15.2-1.3L345.4 130c-4.5 2.7-12 3.1-16.7 0.8l-12.2-5c-4.9-1.7-10-7.3-11.2-12.4L296 74.6c-1.2-5.1-6.5-9.6-11.7-10.1 0 0-4.9-0.4-12.3-0.4s-12.3 0.4-12.3 0.4c-5.2 0.5-10.5 5-11.7 10.1l-9.4 38.9c-1.2 5.1-6.3 10.7-11.2 12.4l-12.2 5c-4.7 2.3-12.2 2-16.7-0.8l-34.1-20.9c-4.5-2.7-11.3-2.1-15.2 1.4L131.9 128c-3.5 3.9-4.1 10.8-1.4 15.2l20.9 34.1c2.7 4.5 3.1 12 0.8 16.7l-5 12.2c-1.7 4.9-7.3 10-12.4 11.2l-38.9 9.4c-5.1 1.2-9.6 6.5-10.1 11.7 0 0-0.4 4.9-0.4 12.3s0.4 12.3 0.4 12.3c0.5 5.2 5 10.5 10.1 11.7l38.9 9.4c5.1 1.2 10.7 6.3 12.4 11.2l5 12.2c2.3 4.7 1.9 12.2-0.8 16.7l-20.9 34.1c-2.7 4.5-2.1 11.3 1.4 15.2l17.3 17.4c3.9 3.5 10.8 4.1 15.2 1.4l34.1-20.9c4.5-2.7 12-3.1 16.7-0.8l12.2 5c4.9 1.7 10 7.3 11.2 12.4L248 427c1.2 5.1 6.5 9.6 11.7 10.1 0 0 4.9 0.4 12.3 0.4s12.3-0.4 12.3-0.4c5.2-0.5 10.5-5 11.7-10.1l9.4-38.9c1.2-5.1 6.3-10.7 11.2-12.4l12.2-5c4.7-2.3 12.2-1.9 16.7 0.8l34.1 20.9c4.5 2.7 11.3 2.1 15.2-1.4l17.3-17.4c3.5-3.9 4.1-10.8 1.4-15.2l-20.9-34.1c-2.7-4.5-3.1-12-0.8-16.7l5-12.2c1.7-4.9 7.3-10 12.4-11.2l38.9-9.4c5.1-1.2 9.7-6.5 10.1-11.7 0 0 0.4-4.9 0.4-12.3s-0.4-12.4-0.4-12.4zM272 324.1c-41.2 0-74.7-32.9-74.7-73.4s33.4-73.4 74.7-73.4 74.7 32.9 74.7 73.4-33.5 73.4-74.7 73.4z" /></svg>