<?xml version="1.0" standalone="no"?><!DOCTYPE svg PUBLIC "-//W3C//DTD SVG 1.1//EN" "http://www.w3.org/Graphics/SVG/1.1/DTD/svg11.dtd"><svg class="icon" height="512" viewBox="0 0 1543 1024" version="1.1" xmlns="http://www.w3.org/2000/svg"><path d="M1332.60274 393.608767h-133.681096l-11.64274 57.512329-46.851507-28.054795-133.82137 127.929863L1038.027397 599.110137l-53.023561 11.923288V799.561644H84.164384a84.164384 84.164384 0 0 1-84.164384-84.164384V84.164384a84.164384 84.164384 0 0 1 84.164384-84.164384h1164.273972a84.164384 84.164384 0 0 1 84.164384 84.164384z m-739.524384 66.910685l-134.382466-52.883288 134.382466-51.761096v-54.706849l-192.876712 84.164384v46.430685l192.876712 84.164383z m119.232877-160.473425a105.906849 105.906849 0 0 0 4.067945-21.602191 16.271781 16.271781 0 0 0-5.049863-12.624658 21.18137 21.18137 0 0 0-14.027397-4.629041 15.850959 15.850959 0 0 0-15.009315 6.452603A98.191781 98.191781 0 0 0 673.315068 291.769863l-53.163835 221.212055a150.513973 150.513973 0 0 0-3.787397 22.023014q0 16.832877 19.498082 16.832876a17.955068 17.955068 0 0 0 11.923287-3.506849 21.041096 21.041096 0 0 0 6.172055-9.819178q1.963836-6.312329 4.629041-17.253699z m219.949589 131.156165v-46.009863l-192.736438-83.182466v53.865205l134.803287 52.181918-134.803287 52.883288v54.286027zM336.657534 911.780822h659.287671a56.109589 56.109589 0 0 1 56.10959 56.109589 56.109589 56.109589 0 0 1-56.10959 56.109589H336.657534a56.109589 56.109589 0 0 1-56.109589-56.109589 56.109589 56.109589 0 0 1 56.109589-56.109589zM1543.013699 749.62411v-94.684932l-72.521644-11.923288A126.246575 126.246575 0 0 0 1458.849315 617.205479l42.082192-59.756712-65.367671-66.489863-59.616439 42.082192a154.30137 154.30137 0 0 0-25.670137-11.081644L1338.213699 448.876712h-94.544658l-11.923288 72.661918A127.509041 127.509041 0 0 0 1206.356164 533.041096l-60.598356-42.082192-67.050959 67.191233 42.082192 59.756712a213.917808 213.917808 0 0 0-11.081644 25.810411l-71.68 11.221918v94.684932l72.521644 11.923287a126.246575 126.246575 0 0 0 11.64274 25.810411l-43.204384 59.756713 67.050959 67.191232 59.756712-43.204383a207.324932 207.324932 0 0 0 25.670137 10.099726L1242.827397 953.863014h94.544658l11.923287-72.661918A127.509041 127.509041 0 0 0 1374.684932 869.69863l59.616438 43.204384 67.050959-67.191233-41.380822-58.915069a215.601096 215.601096 0 0 0 11.081644-25.810411zM1290.520548 764.493151a63.123288 63.123288 0 1 1 63.123288-63.123288 62.702466 62.702466 0 0 1-63.123288 63.123288z" /></svg>